<svg id="visual" viewBox="0 0 900 600" width="900" height="600" xmlns="http://www.w3.org/2000/svg" xmlns:xlink="http://www.w3.org/1999/xlink" version="1.1"><rect x="0" y="0" width="900" height="600" fill="#070b0f"></rect><defs><linearGradient id="grad1_0" x1="33.3%" y1="100%" x2="100%" y2="0%"><stop offset="20%" stop-color="#9900ff" stop-opacity="1"></stop><stop offset="80%" stop-color="#9900ff" stop-opacity="1"></stop></linearGradient></defs><defs><linearGradient id="grad1_1" x1="33.3%" y1="100%" x2="100%" y2="0%"><stop offset="20%" stop-color="#9900ff" stop-opacity="1"></stop><stop offset="80%" stop-color="#1e3ad2" stop-opacity="1"></stop></linearGradient></defs><defs><linearGradient id="grad1_2" x1="33.3%" y1="100%" x2="100%" y2="0%"><stop offset="20%" stop-color="#003694" stop-opacity="1"></stop><stop offset="80%" stop-color="#1e3ad2" stop-opacity="1"></stop></linearGradient></defs><defs><linearGradient id="grad1_3" x1="33.3%" y1="100%" x2="100%" y2="0%"><stop offset="20%" stop-color="#003694" stop-opacity="1"></stop><stop offset="80%" stop-color="#00244f" stop-opacity="1"></stop></linearGradient></defs><defs><linearGradient id="grad1_4" x1="33.3%" y1="100%" x2="100%" y2="0%"><stop offset="20%" stop-color="#070b0f" stop-opacity="1"></stop><stop offset="80%" stop-color="#00244f" stop-opacity="1"></stop></linearGradient></defs><defs><linearGradient id="grad2_0" x1="0%" y1="100%" x2="66.7%" y2="0%"><stop offset="20%" stop-color="#9900ff" stop-opacity="1"></stop><stop offset="80%" stop-color="#9900ff" stop-opacity="1"></stop></linearGradient></defs><defs><linearGradient id="grad2_1" x1="0%" y1="100%" x2="66.7%" y2="0%"><stop offset="20%" stop-color="#1e3ad2" stop-opacity="1"></stop><stop offset="80%" stop-color="#9900ff" stop-opacity="1"></stop></linearGradient></defs><defs><linearGradient id="grad2_2" x1="0%" y1="100%" x2="66.7%" y2="0%"><stop offset="20%" stop-color="#1e3ad2" stop-opacity="1"></stop><stop offset="80%" stop-color="#003694" stop-opacity="1"></stop></linearGradient></defs><defs><linearGradient id="grad2_3" x1="0%" y1="100%" x2="66.7%" y2="0%"><stop offset="20%" stop-color="#00244f" stop-opacity="1"></stop><stop offset="80%" stop-color="#003694" stop-opacity="1"></stop></linearGradient></defs><defs><linearGradient id="grad2_4" x1="0%" y1="100%" x2="66.7%" y2="0%"><stop offset="20%" stop-color="#00244f" stop-opacity="1"></stop><stop offset="80%" stop-color="#070b0f" stop-opacity="1"></stop></linearGradient></defs><g transform="translate(900, 600)"><path d="M-513.8 0C-480.1 -77.7 -446.5 -155.4 -407.9 -235.5C-369.3 -315.6 -325.7 -398.2 -256.9 -445C-188.1 -491.7 -94 -502.8 0 -513.8L0 0Z" fill="#00192e"></path><path d="M-411 0C-384.1 -62.2 -357.2 -124.3 -326.3 -188.4C-295.4 -252.5 -260.6 -318.5 -205.5 -356C-150.5 -393.4 -75.2 -402.2 0 -411L0 0Z" fill="#002e72"></path><path d="M-308.3 0C-288.1 -46.6 -267.9 -93.2 -244.7 -141.3C-221.6 -189.4 -195.4 -238.9 -154.1 -267C-112.9 -295 -56.4 -301.7 0 -308.3L0 0Z" fill="#003bb4"></path><path d="M-205.5 0C-192.1 -31.1 -178.6 -62.2 -163.2 -94.2C-147.7 -126.2 -130.3 -159.3 -102.8 -178C-75.2 -196.7 -37.6 -201.1 0 -205.5L0 0Z" fill="#6130eb"></path><path d="M-102.8 0C-96 -15.5 -89.3 -31.1 -81.6 -47.1C-73.9 -63.1 -65.1 -79.6 -51.4 -89C-37.6 -98.3 -18.8 -100.6 0 -102.8L0 0Z" fill="#9900ff"></path></g><g transform="translate(0, 0)"><path d="M513.8 0C449.7 60.1 385.5 120.2 350.7 202.5C315.9 284.8 310.5 389.4 256.9 445C203.3 500.5 101.7 507.2 0 513.8L0 0Z" fill="#00192e"></path><path d="M411 0C359.7 48.1 308.4 96.1 280.6 162C252.8 227.9 248.4 311.5 205.5 356C162.7 400.4 81.3 405.7 0 411L0 0Z" fill="#002e72"></path><path d="M308.3 0C269.8 36.1 231.3 72.1 210.4 121.5C189.6 170.9 186.3 233.6 154.1 267C122 300.3 61 304.3 0 308.3L0 0Z" fill="#003bb4"></path><path d="M205.5 0C179.9 24 154.2 48.1 140.3 81C126.4 113.9 124.2 155.7 102.8 178C81.3 200.2 40.7 202.9 0 205.5L0 0Z" fill="#6130eb"></path><path d="M102.8 0C89.9 12 77.1 24 70.1 40.5C63.2 57 62.1 77.9 51.4 89C40.7 100.1 20.3 101.4 0 102.8L0 0Z" fill="#9900ff"></path></g></svg>